<svg width="219" height="219" viewBox="0 0 219 219" fill="none" xmlns="http://www.w3.org/2000/svg">
<circle cx="109.5" cy="109.5" r="109.5" fill="#D4967D"/>
<path d="M112.5 100.5C127.501 103 177.499 111.5 147.5 124.5C139.475 127.978 94.3562 138.56 91.0003 149C86.7243 162.303 181.77 180.572 191.242 182.357C171.189 204.841 141.999 219 109.5 219C90.0933 219 71.8658 213.95 56.0589 205.095C37.9007 187.399 34.9919 169.883 34.5003 163C34.0003 156 34.0081 149.307 41.0003 144.5C57.0003 133.5 80.0004 132 95.5003 128.5C115.161 124.061 146.5 119 147.5 115C148.3 111.8 124.5 104 112.5 100.5Z" fill="white"/>
<path d="M107 74C87.5 74 82.6667 91.6667 84 100.5H129.5C131 91.6667 126.5 74 107 74Z" fill="white"/>
<path d="M43 60C43.6338 60 44.2331 60.1477 44.7656 60.4102L44.7676 60.4072L44.8291 60.4424C44.9459 60.5026 45.0592 60.5686 45.1689 60.6396L75.9795 78.5244C77.1861 79.2131 78 80.5112 78 82C78 84.2091 76.2091 86 74 86C73.2675 86 72.5817 85.8018 71.9912 85.458L71.9883 85.4648L40.748 67.3311L40.7578 67.3125C39.6972 66.5932 39 65.3781 39 64C39 61.7909 40.7909 60 43 60Z" fill="white"/>
<path d="M110.558 25.4728C110.873 26.0231 111.042 26.6166 111.078 27.2092L111.082 27.2095L111.082 27.2803C111.087 27.4116 111.086 27.5427 111.079 27.6733L110.84 63.2977C110.841 64.687 110.118 66.0377 108.825 66.7765C106.907 67.8727 104.464 67.2066 103.368 65.2886C103.004 64.6526 102.836 63.9589 102.842 63.2756L102.834 63.2765L103.076 27.1555L103.097 27.1547C103.195 25.8769 103.904 24.6687 105.1 23.9849C107.018 22.8887 109.462 23.5548 110.558 25.4728Z" fill="white"/>
<path d="M174.127 66.4321C173.811 66.9819 173.385 67.4281 172.892 67.7593L172.894 67.7625L172.832 67.7983C172.722 67.8697 172.608 67.935 172.492 67.9949L141.644 85.8148C140.446 86.5185 138.915 86.5782 137.624 85.8371C135.708 84.7375 135.046 82.2928 136.146 80.3768C136.51 79.7415 137.024 79.2454 137.616 78.9044L137.611 78.8984L168.889 60.8298L168.9 60.8475C170.052 60.2857 171.453 60.2858 172.648 60.9718C174.564 62.0715 175.226 64.5161 174.127 66.4321Z" fill="white"/>
<path d="M44.3952 92.4894C44.7747 92.2489 45.1941 92.12 45.6204 92.0873L45.6202 92.0816L45.6904 92.0811C45.7588 92.0776 45.8272 92.0788 45.8958 92.0804L71.752 91.9382L71.7509 91.9401C72.7481 91.935 73.7567 92.4615 74.3619 93.416C75.2666 94.843 74.9274 96.6798 73.6048 97.5185C73.1663 97.7965 72.6746 97.9268 72.1804 97.9289L72.1812 97.9376L46.049 98.0802L46.0474 98.065C45.1177 98.003 44.2026 97.4822 43.6381 96.5919C42.7334 95.1647 43.0724 93.3279 44.3952 92.4894Z" fill="white"/>
<path d="M138.395 91.2855C138.775 91.0449 139.194 90.916 139.62 90.8834L139.62 90.8777L139.69 90.8772C139.759 90.8737 139.827 90.8749 139.896 90.8765L165.752 90.7343L165.751 90.7361C166.748 90.7311 167.757 91.2576 168.362 92.2121C169.267 93.6391 168.927 95.4759 167.605 96.3145C167.166 96.5925 166.675 96.7229 166.18 96.725L166.181 96.7337L140.049 96.8763L140.047 96.8611C139.118 96.7991 138.203 96.2783 137.638 95.3879C136.733 93.9608 137.072 92.124 138.395 91.2855Z" fill="white"/>
<path d="M121.675 69.8126C121.626 69.366 121.696 68.9327 121.855 68.5358L121.849 68.5334L121.88 68.4702C121.907 68.4072 121.938 68.3464 121.97 68.2856L133.251 45.0198L133.253 45.0217C133.688 44.1246 134.605 43.4518 135.729 43.3298C137.409 43.1477 138.908 44.2625 139.077 45.8194C139.133 46.3356 139.033 46.8343 138.816 47.2788L138.825 47.2819L127.422 70.7955L127.407 70.7902C126.941 71.5972 126.07 72.1886 125.022 72.3022C123.342 72.4844 121.844 71.3696 121.675 69.8126Z" fill="white"/>
<path d="M87.6545 73.3048C87.2806 73.0558 86.9924 72.7249 86.7894 72.3487L86.7842 72.3512L86.7552 72.2872C86.7242 72.2261 86.6976 72.1632 86.6711 72.0999L76.0355 48.5319L76.0377 48.5322C75.628 47.623 75.6992 46.4875 76.3254 45.5467C77.2618 44.1403 79.078 43.7038 80.3816 44.5716C80.8138 44.8593 81.1327 45.2556 81.3354 45.7064L81.343 45.7021L92.0912 69.5221L92.0779 69.5297C92.399 70.4045 92.2949 71.4522 91.7107 72.3297C90.7743 73.7362 88.9582 74.1728 87.6545 73.3048Z" fill="white"/>
</svg>
